<svg xmlns="http://www.w3.org/2000/svg" height="512pt" version="1.1" viewBox="-66 0 512 512.002" width="512pt">
<g id="surface1">
<path d="M 361.753906 463.386719 L 348.082031 463.386719 C 348.089844 463.199219 348.109375 463.015625 348.109375 462.828125 L 348.109375 445.335938 C 348.109375 436.757812 341.132812 429.773438 332.550781 429.773438 L 317.394531 429.773438 L 317.394531 423.269531 C 317.394531 415.703125 314.921875 408.289062 310.246094 401.832031 C 260.339844 332.886719 243.164062 260.558594 237.804688 209.480469 L 257.925781 209.480469 C 268.089844 209.480469 276.359375 201.210938 276.359375 191.046875 L 276.359375 180.546875 C 276.359375 170.445312 268.1875 162.222656 258.109375 162.125 C 258.503906 160.574219 258.730469 158.957031 258.730469 157.285156 L 258.730469 149.582031 C 258.730469 140.800781 252.988281 133.34375 245.0625 130.746094 C 255.609375 119.972656 262.855469 106.257812 265.675781 91.152344 C 266.433594 87.078125 263.746094 83.160156 259.675781 82.402344 C 255.613281 81.644531 251.6875 84.328125 250.929688 88.398438 C 247.71875 105.609375 237.359375 120.566406 222.40625 129.753906 L 157.582031 129.753906 C 139.316406 118.503906 128.046875 98.453125 128.046875 76.964844 C 128.046875 42.796875 155.847656 15 190.015625 15 C 216.710938 15 240.335938 31.996094 248.796875 57.296875 C 250.109375 61.226562 254.359375 63.34375 258.289062 62.03125 C 262.21875 60.71875 264.335938 56.46875 263.019531 52.539062 C 252.511719 21.113281 223.171875 0 190.015625 0 C 147.574219 0 113.046875 34.527344 113.046875 76.964844 C 113.046875 97.269531 121.148438 116.527344 135 130.730469 C 127.058594 133.320312 121.296875 140.785156 121.296875 149.582031 L 121.296875 157.285156 C 121.296875 158.957031 121.527344 160.574219 121.917969 162.125 C 111.839844 162.226562 103.671875 170.445312 103.671875 180.546875 L 103.671875 191.046875 C 103.671875 201.210938 111.941406 209.480469 122.101562 209.480469 L 142.222656 209.480469 C 136.863281 260.558594 119.6875 332.886719 69.78125 401.832031 C 65.105469 408.289062 62.636719 415.703125 62.636719 423.269531 L 62.636719 429.777344 L 47.480469 429.777344 C 38.898438 429.777344 31.917969 436.757812 31.917969 445.335938 L 31.917969 462.828125 C 31.917969 463.015625 31.941406 463.199219 31.945312 463.390625 L 18.277344 463.390625 C 8.199219 463.390625 0 471.589844 0 481.667969 L 0 493.722656 C 0 503.804688 8.199219 512.003906 18.277344 512.003906 L 361.753906 512.003906 C 371.832031 512.003906 380.03125 503.804688 380.03125 493.722656 L 380.03125 481.667969 C 380.03125 471.585938 371.828125 463.386719 361.753906 463.386719 Z M 136.296875 149.582031 C 136.296875 146.917969 138.464844 144.753906 141.128906 144.753906 L 238.902344 144.753906 C 241.566406 144.753906 243.730469 146.917969 243.730469 149.582031 L 243.730469 157.285156 C 243.730469 159.949219 241.566406 162.117188 238.902344 162.117188 L 141.128906 162.117188 C 138.464844 162.117188 136.296875 159.949219 136.296875 157.285156 Z M 122.101562 194.480469 C 120.210938 194.480469 118.671875 192.9375 118.671875 191.046875 L 118.671875 180.546875 C 118.671875 178.65625 120.210938 177.113281 122.101562 177.113281 L 257.925781 177.113281 C 259.820312 177.113281 261.359375 178.65625 261.359375 180.546875 L 261.359375 191.046875 C 261.359375 192.9375 259.820312 194.480469 257.925781 194.480469 Z M 46.917969 445.335938 C 46.917969 445.027344 47.167969 444.773438 47.480469 444.773438 L 95.046875 444.773438 C 99.1875 444.773438 102.546875 441.417969 102.546875 437.273438 C 102.546875 433.132812 99.1875 429.773438 95.046875 429.773438 L 77.636719 429.773438 L 77.636719 423.269531 C 77.636719 418.882812 79.121094 414.511719 81.929688 410.628906 C 134.269531 338.324219 151.929688 262.527344 157.300781 209.480469 L 222.730469 209.480469 C 228.097656 262.527344 245.761719 338.324219 298.097656 410.628906 C 300.910156 414.507812 302.394531 418.882812 302.394531 423.269531 L 302.394531 429.773438 L 129.964844 429.773438 C 125.820312 429.773438 122.464844 433.132812 122.464844 437.273438 C 122.464844 441.417969 125.820312 444.773438 129.964844 444.773438 L 332.550781 444.773438 C 332.859375 444.773438 333.113281 445.027344 333.113281 445.335938 L 333.113281 462.828125 C 333.113281 463.136719 332.859375 463.386719 332.550781 463.386719 L 47.480469 463.386719 C 47.167969 463.386719 46.917969 463.136719 46.917969 462.828125 Z M 365.03125 493.722656 C 365.03125 495.53125 363.558594 497 361.753906 497 L 18.277344 497 C 16.46875 497 15 495.53125 15 493.722656 L 15 481.664062 C 15 479.855469 16.472656 478.386719 18.277344 478.386719 L 361.753906 478.386719 C 363.5625 478.386719 365.03125 479.855469 365.03125 481.664062 Z M 365.03125 493.722656 " style=" stroke:none;fill-rule:nonzero;fill:rgb(0%,0%,0%);fill-opacity:1;" />
</g>
</svg>