<?xml version="1.0" encoding="iso-8859-1"?>
<!-- Generator: Adobe Illustrator 19.0.0, SVG Export Plug-In . SVG Version: 6.00 Build 0)  -->
<svg version="1.1" id="Layer_1" xmlns="http://www.w3.org/2000/svg" xmlns:xlink="http://www.w3.org/1999/xlink" x="0px" y="0px"
	 viewBox="0 0 512 512" style="enable-background:new 0 0 512 512;" xml:space="preserve">
<g>
	<g>
		<g>
			<path d="M41.114,478.339h181.237c4.116,0,7.453-3.338,7.453-7.453V289.661c0-4.115-3.336-7.453-7.453-7.453H41.114
				c-4.115,0-7.453,3.338-7.453,7.453v181.225C33.661,475.001,36.999,478.339,41.114,478.339z M48.567,297.114h166.332v166.319
				H48.567V297.114z"/>
			<path d="M504.547,0H7.453C3.338,0,0,3.336,0,7.453v497.095C0,508.662,3.338,512,7.453,512h497.095
				c4.115,0,7.453-3.338,7.453-7.453V7.453C512,3.336,508.662,0,504.547,0z M248.547,497.095H14.905V263.453h233.642V497.095z
				 M248.547,248.547H14.905V14.905h233.642V248.547z M497.095,497.095H263.453V263.453h233.642V497.095z M497.095,248.547H263.453
				V14.905h233.642V248.547z"/>
			<path d="M289.661,229.791h181.237c4.115,0,7.453-3.338,7.453-7.453V41.114c0-4.116-3.336-7.453-7.453-7.453H289.661
				c-4.116,0-7.453,3.336-7.453,7.453v181.225C282.209,226.454,285.545,229.791,289.661,229.791z M382.617,204.416l64.2-114.938
				l13.929,7.782l-64.189,114.939L382.617,204.416z M463.447,214.886h-51.318l51.318-91.892V214.886z M297.114,48.567h166.332
				v33.127l-15.867-8.864c-1.725-0.964-3.762-1.202-5.665-0.665c-1.902,0.539-3.513,1.811-4.477,3.536l-71.469,127.952
				c-0.964,1.725-1.202,3.764-0.665,5.667c0.539,1.902,1.811,3.511,3.538,4.475l1.953,1.091h-73.68V48.567z"/>
			<path d="M41.114,229.791h181.237c4.116,0,7.453-3.338,7.453-7.453V41.114c0-4.116-3.336-7.453-7.453-7.453H41.114
				c-4.115,0-7.453,3.336-7.453,7.453v181.225C33.661,226.454,36.999,229.791,41.114,229.791z M95.981,214.886H74.495V105.023
				h21.485v23.883h0.001V214.886z M132.371,214.886h-21.485v-78.527h21.485V214.886z M163.238,214.886h-15.962v-85.979V83.242
				h15.962V214.886z M48.567,48.567h166.332v166.319h-36.755V75.789c0-4.116-3.338-7.453-7.453-7.453h-30.868
				c-4.115,0-7.453,3.336-7.453,7.453v45.665h-21.484V97.571c0-4.116-3.338-7.453-7.453-7.453H67.042
				c-4.115,0-7.453,3.336-7.453,7.453v117.315H48.567V48.567z"/>
			<path d="M289.661,478.339h181.237c4.115,0,7.453-3.338,7.453-7.453V289.661c0-4.116-3.336-7.453-7.453-7.453H289.661
				c-4.116,0-7.453,3.338-7.453,7.453v181.225C282.209,475.001,285.545,478.339,289.661,478.339z M378.434,375.433h-13.245v-28.081
				c0-4.115-3.338-7.453-7.453-7.453s-7.453,3.338-7.453,7.453v28.081h-13.258v-47.855h41.408V375.433z M378.435,463.433h-41.408
				v-73.095h41.408V463.433z M297.114,297.114h166.332v166.319h-70.105V320.125c0-4.115-3.338-7.453-7.453-7.453h-56.314
				c-4.115,0-7.453,3.338-7.453,7.453v143.308h-25.008V297.114z"/>
			<path d="M174.699,372.82c-1.963,0-3.888,0.795-5.279,2.186c-1.379,1.379-2.174,3.304-2.174,5.267c0,0.484,0.05,0.981,0.137,1.453
				c0.099,0.484,0.248,0.944,0.435,1.404c0.186,0.447,0.41,0.882,0.683,1.279c0.273,0.41,0.584,0.795,0.919,1.13
				c1.391,1.391,3.316,2.186,5.279,2.186c1.964,0,3.877-0.795,5.267-2.186c0.348-0.335,0.658-0.72,0.919-1.13
				c0.273-0.397,0.509-0.832,0.696-1.279c0.186-0.46,0.323-0.919,0.422-1.404c0.099-0.472,0.149-0.969,0.149-1.453
				c0-1.963-0.795-3.875-2.186-5.267C178.574,373.615,176.661,372.82,174.699,372.82z"/>
		</g>
	</g>
</g>
<g>
</g>
<g>
</g>
<g>
</g>
<g>
</g>
<g>
</g>
<g>
</g>
<g>
</g>
<g>
</g>
<g>
</g>
<g>
</g>
<g>
</g>
<g>
</g>
<g>
</g>
<g>
</g>
<g>
</g>
</svg>
