<?xml version="1.0" encoding="iso-8859-1"?>
<!-- Generator: Adobe Illustrator 16.0.0, SVG Export Plug-In . SVG Version: 6.00 Build 0)  -->
<!DOCTYPE svg PUBLIC "-//W3C//DTD SVG 1.1//EN" "http://www.w3.org/Graphics/SVG/1.1/DTD/svg11.dtd">
<svg version="1.1" id="Capa_1" xmlns="http://www.w3.org/2000/svg" xmlns:xlink="http://www.w3.org/1999/xlink" x="0px" y="0px"
	 width="492.156px" height="492.156px" viewBox="0 0 492.156 492.156" style="enable-background:new 0 0 492.156 492.156;"
	 xml:space="preserve">
<g>
	<path d="M198.926,0v492.156h94.305V0H198.926z M283.64,482.564h-75.126V9.593h75.126V482.564z M275.656,17.579H215.73v48.73h59.926
		V17.579z M222.034,54.744l23.659-31.54l23.646,31.54H222.034z M275.656,426.914H215.73v48.735h59.926V426.914z M245.692,470.038
		l-23.659-31.551h47.305L245.692,470.038z M268.857,314.251V142.212h-46.341v172.039H268.857z M261.328,247.346h-30.895v-7.99
		h30.895V247.346z M261.328,228.565h-30.895v-7.989h30.895V228.565z M230.048,203.003h30.887v7.992h-30.887V203.003z"/>
</g>
<g>
</g>
<g>
</g>
<g>
</g>
<g>
</g>
<g>
</g>
<g>
</g>
<g>
</g>
<g>
</g>
<g>
</g>
<g>
</g>
<g>
</g>
<g>
</g>
<g>
</g>
<g>
</g>
<g>
</g>
</svg>
